<?xml version="1.0" standalone="no"?>
<!DOCTYPE svg PUBLIC "-//W3C//DTD SVG 20010904//EN"
 "http://www.w3.org/TR/2001/REC-SVG-20010904/DTD/svg10.dtd">
<svg version="1.0" xmlns="http://www.w3.org/2000/svg"
 width="370.000000pt" height="196.000000pt" viewBox="0 0 370.000000 196.000000"
 preserveAspectRatio="xMidYMid meet">

<g transform="translate(0.000000,196.000000) scale(0.100000,-0.100000)"
fill="#000000" stroke="none">
<path d="M2105 1732 c-38 -10 -110 -37 -160 -59 -210 -95 -370 -174 -368 -181
1 -5 -8 -8 -20 -8 -12 0 -101 -38 -197 -83 -96 -46 -190 -90 -207 -98 -18 -8
-33 -19 -33 -24 0 -5 -10 -9 -22 -9 -21 -1 -21 -2 -5 -11 9 -5 17 -15 17 -21
0 -6 -11 -3 -25 6 -25 16 -51 14 -40 -4 3 -4 -5 -6 -17 -2 -21 5 -22 4 -9 -12
8 -9 10 -20 6 -24 -4 -4 -10 -1 -12 6 -3 6 -14 12 -24 12 -13 0 -18 -4 -13
-12 5 -8 2 -9 -9 -5 -13 5 -17 1 -18 -16 0 -18 -2 -19 -7 -5 -6 15 -11 15 -40
3 -17 -8 -32 -19 -32 -25 0 -6 -4 -9 -10 -5 -5 3 -49 -15 -97 -40 -48 -26 -80
-44 -70 -41 9 3 24 3 33 -1 12 -4 8 -9 -16 -19 -18 -8 -37 -11 -43 -7 -6 4 -7
1 -2 -7 6 -10 3 -12 -14 -7 -15 3 -24 0 -28 -9 -3 -8 -12 -13 -20 -10 -8 3
-12 2 -9 -3 3 -5 -21 -14 -54 -22 -32 -7 -57 -16 -54 -21 5 -7 -10 -12 -28 -9
-5 0 -8 -3 -8 -8 0 -5 -44 -26 -98 -47 -99 -39 -120 -50 -110 -59 12 -13 177
55 1128 460 597 255 698 293 729 275 11 -7 12 -9 3 -10 -8 0 -159 -60 -335
-134 -177 -74 -482 -199 -677 -279 -662 -270 -829 -342 -817 -353 4 -4 68 20
537 211 348 141 951 391 1268 524 107 45 217 86 245 93 63 13 169 5 201 -15
12 -9 38 -45 57 -81 29 -57 39 -68 69 -76 19 -5 134 -34 255 -65 121 -32 228
-61 237 -66 21 -11 32 -49 58 -209 28 -173 37 -362 19 -376 -19 -15 -283 -134
-298 -134 -6 0 -53 31 -103 68 -111 82 -260 182 -305 206 -25 12 -33 23 -33
43 0 50 -50 271 -81 359 -17 49 -44 115 -60 147 -17 32 -27 63 -23 69 4 6 25
8 51 5 87 -9 130 -81 140 -231 3 -53 11 -100 17 -104 6 -5 31 -16 55 -25 l44
-17 -7 98 c-11 164 -52 279 -107 308 -15 7 -48 18 -73 24 -54 12 -159 3 -149
-13 4 -6 8 -25 9 -41 1 -17 19 -71 39 -120 40 -95 78 -259 89 -387 l7 -76 112
-84 c61 -46 163 -126 227 -177 63 -52 120 -99 127 -104 7 -6 71 26 185 93 95
56 179 108 187 115 12 11 13 33 3 143 -6 72 -21 178 -33 237 -24 118 -22 124
37 124 85 0 112 -31 139 -161 9 -40 17 -74 18 -75 12 -9 50 -25 52 -22 8 8
-27 223 -41 250 -8 15 -31 39 -52 53 -37 24 -137 55 -179 55 -17 0 -29 14 -54
60 -59 111 -154 154 -584 266 -218 56 -351 66 -470 36z m-1175 -571 c0 -5 -7
-12 -16 -15 -14 -5 -15 -4 -4 9 14 17 20 19 20 6z"/>
<path d="M2060 1475 c-42 -18 -51 -25 -37 -30 9 -4 17 -14 17 -22 0 -12 -3
-12 -16 2 -15 14 -18 14 -34 -5 -17 -20 -19 -20 -29 -3 -9 17 -11 17 -26 -2
-9 -11 -13 -14 -10 -7 6 10 3 11 -11 3 -11 -5 -27 -12 -37 -15 -10 -3 -16 -10
-12 -15 3 -6 -3 -8 -14 -6 -25 5 -243 -82 -254 -101 -4 -7 -14 -11 -21 -8 -8
3 -27 -1 -43 -10 -15 -8 -22 -15 -15 -16 21 0 13 -14 -15 -27 -33 -16 -77 -17
-68 -3 4 6 -15 2 -42 -8 -138 -54 -239 -96 -243 -102 -3 -4 -18 -10 -35 -14
-16 -4 -70 -24 -120 -45 -49 -21 -111 -46 -137 -55 -27 -10 -48 -22 -48 -27 0
-5 -8 -9 -18 -9 -39 0 -342 -128 -367 -156 -17 -19 -37 -28 -62 -29 -36 -3
-65 -26 -50 -41 3 -4 39 5 79 20 40 14 77 26 81 26 5 0 7 -15 5 -32 -3 -32 -6
-34 -83 -60 -116 -38 -110 -40 -130 50 -27 123 -34 119 -35 -20 0 -71 4 -128
9 -128 5 0 37 9 72 19 258 79 916 263 1199 335 304 77 426 81 637 20 198 -57
445 -210 699 -431 l62 -54 186 103 c135 74 186 107 186 120 0 10 -3 18 -7 18
-3 0 -85 -41 -180 -91 -96 -50 -180 -88 -186 -86 -7 3 -69 52 -138 109 -146
121 -257 197 -384 261 -129 66 -292 137 -350 153 -58 16 -172 20 -262 10 l-63
-8 0 81 c0 47 -4 81 -10 81 -6 0 -10 -35 -10 -84 l0 -84 -35 -6 c-19 -4 -100
-25 -179 -46 -80 -22 -149 -40 -155 -40 -7 0 -11 22 -11 55 0 30 -4 55 -10 55
-6 0 -10 -26 -10 -59 0 -33 -4 -63 -10 -66 -5 -3 -58 -19 -117 -36 -59 -16
-116 -32 -126 -35 -16 -5 -18 0 -15 52 l3 58 345 136 c190 75 422 169 517 207
94 39 174 68 177 65 3 -3 6 -72 6 -153 l0 -148 30 -21 30 -21 0 210 c0 231 3
241 53 181 23 -27 66 -124 68 -153 0 -7 4 -3 9 8 6 16 8 13 8 -15 0 -19 4 -89
10 -154 10 -119 10 -120 43 -147 l34 -28 3 24 c2 14 -6 78 -17 142 -36 212
-93 352 -143 348 -12 -1 -34 6 -47 17 -29 22 -24 22 -91 -7z m195 -105 c3 -5
1 -10 -4 -10 -6 0 -11 5 -11 10 0 6 2 10 4 10 3 0 8 -4 11 -10z m-1272 -510
c-4 -4 -47 -19 -95 -33 l-88 -25 0 48 0 48 68 26 c131 49 117 50 120 -7 2 -27
0 -53 -5 -57z m-207 -4 c11 -47 2 -59 -61 -78 -33 -10 -68 -21 -77 -24 -15 -4
-18 1 -18 34 0 40 0 40 63 65 79 32 85 32 93 3z m-186 -80 c0 -29 -4 -36 -31
-45 -46 -16 -49 -15 -49 23 0 28 5 36 28 44 45 17 52 14 52 -22z"/>
<path d="M1475 1220 c3 -5 8 -10 11 -10 2 0 4 5 4 10 0 6 -5 10 -11 10 -5 0
-7 -4 -4 -10z"/>
<path d="M1790 903 c-41 -7 -811 -191 -1252 -299 l-308 -76 0 -30 c0 -27 3
-30 28 -26 15 3 252 57 527 121 1019 237 1072 246 1159 213 56 -21 119 -89
176 -186 73 -126 120 -157 268 -175 l53 -7 -7 28 -7 27 79 -7 c121 -10 260
-35 354 -64 103 -32 134 -32 230 -2 62 19 82 21 114 12 48 -12 65 -7 77 25 11
29 12 163 2 163 -5 0 -84 -45 -177 -100 -93 -55 -174 -100 -181 -100 -7 0 -41
23 -76 51 -98 79 -383 266 -478 314 -113 56 -210 90 -311 109 -76 15 -211 19
-270 9z m742 -297 c21 -47 -16 -83 -52 -51 -20 18 -27 55 -13 68 16 16 54 6
65 -17z m92 -45 c20 -22 14 -61 -9 -61 -21 0 -45 29 -45 56 0 30 29 33 54 5z
m636 -46 c26 -31 -13 -82 -44 -56 -16 14 -22 52 -9 64 11 12 40 8 53 -8z"/>
<path d="M1715 689 c-117 -24 -754 -145 -975 -184 -373 -66 -360 -63 -360 -86
0 -11 -9 -32 -21 -48 -31 -42 -36 -125 -10 -183 36 -83 87 -56 99 53 l7 64
585 62 c322 34 588 62 593 63 4 0 7 -13 7 -30 0 -23 -5 -31 -22 -34 -26 -6
-727 -69 -970 -88 -87 -6 -163 -15 -168 -18 -6 -4 -14 -32 -17 -63 l-6 -57 82
0 c78 0 82 1 91 25 l10 25 187 0 c188 0 704 16 819 26 l61 5 -5 103 c-6 132
11 196 70 261 49 53 106 70 143 41 19 -16 19 -16 -6 -10 -29 6 -92 -17 -122
-44 -11 -9 -31 -39 -46 -67 -23 -45 -26 -61 -26 -155 0 -95 3 -110 27 -156 14
-27 45 -67 67 -87 34 -31 48 -37 85 -37 25 0 56 4 69 9 31 12 82 63 98 100
l13 29 155 6 c86 3 255 5 376 5 246 -1 606 18 645 33 l25 11 -30 8 c-59 15
-482 79 -634 94 -165 17 -435 23 -487 11 l-32 -7 -7 58 c-15 122 -68 214 -146
254 -41 21 -147 25 -224 8z m200 -173 c94 -40 102 -232 11 -315 -74 -69 -170
15 -170 149 0 104 35 155 122 179 1 1 18 -5 37 -13z m-1501 -226 c12 -62 -21
-127 -45 -89 -12 20 -11 96 2 120 13 26 34 11 43 -31z"/>
<path d="M1811 434 c-13 -17 -21 -40 -20 -63 l1 -36 8 34 c17 71 71 80 89 15
15 -54 -5 -107 -44 -115 -24 -5 -26 -7 -13 -13 30 -13 53 -2 71 37 22 44 16
103 -15 142 -25 32 -51 32 -77 -1z"/>
<path d="M295 423 c-73 -15 -68 -10 -63 -63 3 -28 1 -50 -3 -50 -5 0 -9 -13
-9 -30 0 -24 7 -33 40 -50 21 -11 43 -20 48 -20 5 0 12 39 15 88 4 48 10 97
13 110 7 23 2 24 -41 15z"/>
<path d="M3165 374 c-55 -13 -122 -24 -150 -25 l-50 -1 70 -14 c138 -27 244
-41 255 -34 7 4 15 28 17 54 5 43 4 46 -18 45 -13 -1 -69 -12 -124 -25z"/>
<path d="M2860 364 c36 -7 74 -13 85 -12 11 0 -9 6 -45 14 -36 7 -74 13 -85
12 -11 0 9 -6 45 -14z"/>
<path d="M2510 179 c0 -23 77 -87 119 -100 73 -22 172 18 219 89 l14 22 -176
0 c-123 0 -176 -3 -176 -11z"/>
</g>
</svg>
