<?xml version="1.0" standalone="no"?>
<!DOCTYPE svg PUBLIC "-//W3C//DTD SVG 20010904//EN"
 "http://www.w3.org/TR/2001/REC-SVG-20010904/DTD/svg10.dtd">
<svg version="1.0" xmlns="http://www.w3.org/2000/svg"
 width="499.000000pt" height="499.000000pt" viewBox="0 0 499.000000 499.000000"
 preserveAspectRatio="xMidYMid meet">

<g transform="translate(0.000000,499.000000) scale(0.100000,-0.100000)"
fill="#000000" stroke="none">
<path d="M2792 3545 c-66 -15 -140 -46 -342 -143 -69 -33 -142 -67 -163 -76
-21 -8 -36 -19 -33 -24 2 -4 -5 -8 -17 -8 -12 0 -49 -13 -82 -29 -33 -15 -121
-57 -195 -91 -74 -35 -142 -70 -152 -79 -10 -8 -26 -15 -36 -15 -16 -1 -16 -1
1 -11 9 -5 17 -15 17 -21 0 -6 -11 -3 -25 6 -25 16 -51 14 -40 -4 3 -4 -5 -6
-17 -2 -21 5 -22 4 -9 -12 8 -9 10 -20 6 -24 -4 -4 -10 -1 -12 6 -3 6 -14 12
-24 12 -13 0 -18 -4 -13 -12 5 -8 2 -9 -9 -5 -13 5 -17 1 -18 -16 0 -17 -2
-19 -7 -6 -6 15 -10 16 -44 2 -22 -9 -35 -20 -31 -26 3 -6 1 -7 -5 -3 -6 4
-51 -14 -99 -39 -48 -26 -80 -44 -70 -41 9 3 24 3 33 -1 12 -4 8 -9 -16 -19
-18 -8 -37 -11 -43 -7 -6 4 -7 1 -2 -7 6 -10 3 -12 -14 -7 -15 3 -24 0 -28 -9
-3 -8 -12 -13 -20 -10 -8 3 -12 2 -9 -3 3 -5 -21 -14 -54 -22 -32 -7 -57 -16
-54 -21 5 -7 -10 -12 -28 -9 -5 0 -8 -3 -8 -8 0 -10 -171 -81 -194 -81 -7 0
-16 -10 -20 -22 -9 -36 -7 -268 3 -268 5 0 37 9 72 19 258 79 916 263 1199
335 304 77 426 81 637 20 198 -57 445 -210 700 -431 l61 -54 184 101 c100 56
187 105 193 111 5 6 5 13 -2 20 -9 9 -57 -12 -188 -80 -97 -51 -182 -90 -188
-88 -7 3 -69 52 -138 109 -69 58 -164 130 -210 160 -74 49 -336 188 -355 188
-3 0 -41 15 -83 34 -101 45 -202 60 -312 46 -46 -5 -87 -10 -91 -10 -5 0 -8
36 -8 80 0 47 -4 80 -10 80 -6 0 -10 -35 -10 -84 l0 -84 -35 -6 c-19 -4 -100
-25 -179 -46 -80 -22 -149 -40 -155 -40 -7 0 -11 22 -11 55 0 30 -4 55 -10 55
-6 0 -10 -26 -10 -59 0 -33 -4 -63 -10 -66 -5 -3 -58 -19 -117 -36 -59 -16
-116 -32 -126 -35 -16 -5 -18 0 -15 52 l3 58 45 17 c25 10 255 102 512 204
256 102 471 185 477 185 7 0 11 -49 11 -149 l0 -150 30 -21 30 -21 0 210 c0
170 3 211 13 211 55 0 137 -223 137 -373 0 -79 0 -80 38 -114 l37 -34 3 25 c2
14 -6 79 -17 143 -36 212 -93 352 -143 348 -12 -1 -35 7 -49 17 -26 19 -26 19
-85 -5 -44 -19 -55 -27 -41 -32 9 -4 17 -14 17 -22 0 -12 -3 -12 -16 2 -15 14
-18 14 -34 -5 -17 -20 -19 -20 -29 -3 -9 17 -11 17 -26 -2 -9 -11 -13 -14 -10
-7 6 10 3 11 -11 3 -11 -5 -27 -12 -37 -15 -10 -3 -16 -10 -12 -15 3 -6 -3 -8
-14 -6 -25 5 -243 -82 -254 -101 -4 -7 -14 -11 -21 -8 -8 3 -27 -1 -43 -10
-15 -8 -22 -15 -15 -16 21 0 13 -14 -15 -27 -33 -16 -77 -17 -68 -3 4 6 -15 2
-42 -8 -138 -54 -239 -96 -243 -102 -3 -4 -18 -10 -35 -14 -16 -4 -70 -24
-120 -45 -49 -21 -111 -46 -137 -55 -27 -10 -48 -22 -48 -27 0 -5 -8 -9 -18
-9 -39 0 -342 -128 -367 -156 -17 -19 -37 -28 -62 -29 -36 -3 -65 -26 -50 -41
3 -4 39 5 79 20 40 14 77 26 81 26 5 0 7 -15 5 -32 -3 -32 -6 -34 -83 -60
-115 -38 -110 -40 -129 45 -9 39 -19 81 -22 93 -5 18 2 24 45 38 68 22 369
148 1081 451 597 255 698 293 729 275 11 -7 12 -9 3 -10 -8 0 -159 -60 -335
-134 -177 -74 -482 -199 -677 -279 -662 -270 -829 -342 -817 -353 4 -4 68 20
537 211 348 141 951 391 1268 524 107 45 217 86 245 93 63 13 169 5 201 -15
12 -9 38 -45 57 -81 19 -37 42 -69 51 -72 10 -3 129 -34 265 -70 136 -35 251
-68 255 -72 29 -29 95 -549 72 -572 -17 -17 -298 -141 -309 -136 -7 2 -48 31
-91 64 -97 73 -291 201 -321 213 -18 6 -23 16 -23 43 0 96 -79 374 -140 496
-17 33 -28 66 -24 72 4 6 25 8 51 5 88 -10 129 -79 141 -237 l7 -95 35 -17
c79 -37 77 -39 68 63 -9 121 -23 183 -54 247 -28 57 -53 75 -128 92 -54 12
-159 3 -149 -13 4 -6 8 -25 9 -41 1 -17 19 -71 39 -120 40 -95 78 -259 89
-387 l7 -76 112 -84 c61 -46 163 -126 227 -177 63 -52 120 -99 127 -104 7 -6
74 29 195 100 l183 108 -2 115 c-1 74 -11 160 -27 243 -14 72 -24 132 -21 134
2 3 29 5 60 5 39 0 61 -5 75 -18 22 -20 47 -89 56 -157 7 -51 15 -61 53 -73
23 -7 24 -7 17 51 -16 136 -28 185 -53 215 -34 40 -92 68 -172 83 -64 12 -67
13 -91 58 -14 25 -34 56 -44 67 -60 66 -191 116 -526 202 -224 58 -370 71
-488 44z m143 -365 c3 -5 1 -10 -4 -10 -6 0 -11 5 -11 10 0 6 2 10 4 10 3 0 8
-4 11 -10z m12 -82 c-3 -8 -6 -5 -6 6 -1 11 2 17 5 13 3 -3 4 -12 1 -19z
m-1337 -127 c0 -5 -7 -12 -16 -15 -14 -5 -15 -4 -4 9 14 17 20 19 20 6z m53
-301 c-4 -4 -47 -19 -95 -33 l-88 -25 0 48 0 48 68 26 c131 49 117 50 120 -7
2 -27 0 -53 -5 -57z m-207 -4 c11 -47 2 -59 -61 -78 -33 -10 -68 -21 -77 -24
-15 -4 -18 1 -18 34 0 40 0 40 63 65 79 32 85 32 93 3z m-186 -80 c0 -29 -4
-36 -31 -45 -46 -16 -49 -15 -49 23 0 28 5 36 28 44 45 17 52 14 52 -22z"/>
<path d="M2155 3030 c3 -5 8 -10 11 -10 2 0 4 5 4 10 0 6 -5 10 -11 10 -5 0
-7 -4 -4 -10z"/>
<path d="M2470 2713 c-41 -7 -811 -191 -1252 -299 l-308 -76 0 -30 c0 -27 3
-30 28 -26 15 3 252 57 527 121 1019 237 1072 246 1159 213 56 -21 119 -89
176 -186 73 -126 120 -157 268 -175 l53 -7 -7 26 c-6 24 -4 26 27 26 43 0 229
-25 294 -39 28 -6 89 -23 137 -38 l87 -26 73 23 c76 25 138 31 175 17 16 -6
27 -3 42 12 18 18 21 34 21 101 0 44 -3 80 -7 80 -5 0 -84 -45 -177 -100 -93
-55 -174 -100 -181 -100 -7 0 -41 23 -76 51 -98 79 -383 266 -478 314 -113 56
-210 90 -311 109 -76 15 -211 19 -270 9z m742 -297 c21 -47 -16 -83 -52 -51
-20 18 -27 55 -13 68 16 16 54 6 65 -17z m92 -45 c20 -22 14 -61 -9 -61 -21 0
-45 29 -45 56 0 30 29 33 54 5z m636 -46 c26 -31 -13 -82 -44 -56 -16 14 -22
52 -9 64 11 12 40 8 53 -8z"/>
<path d="M2395 2499 c-117 -24 -754 -145 -975 -184 -373 -66 -360 -63 -360
-86 0 -11 -9 -32 -20 -47 -30 -40 -37 -121 -16 -176 22 -57 38 -71 65 -57 23
13 32 37 40 111 l6 55 585 62 c322 34 588 62 593 63 4 0 7 -13 7 -30 0 -23 -5
-31 -22 -34 -26 -6 -727 -69 -970 -88 -87 -6 -162 -14 -167 -18 -6 -3 -14 -31
-19 -63 l-9 -57 89 0 c79 0 88 2 88 18 0 17 12 20 122 25 66 4 167 7 222 7
121 0 682 20 712 26 20 3 21 8 16 107 -6 134 11 197 70 262 49 53 106 70 143
41 19 -16 19 -16 -6 -10 -29 6 -92 -17 -122 -44 -11 -9 -31 -39 -46 -67 -23
-45 -26 -61 -26 -155 0 -90 3 -112 24 -153 33 -67 79 -113 129 -128 74 -22
140 17 207 124 9 14 60 17 419 21 447 7 727 21 760 38 20 11 20 12 -9 19 -64
16 -488 79 -634 94 -165 17 -435 23 -487 11 l-32 -7 -7 58 c-15 122 -68 214
-146 254 -41 21 -147 25 -224 8z m200 -173 c94 -40 102 -232 11 -315 -74 -69
-170 15 -170 149 0 104 35 155 122 179 1 1 18 -5 37 -13z m-1501 -226 c12 -62
-21 -127 -45 -89 -12 20 -11 96 2 120 13 26 34 11 43 -31z"/>
<path d="M2491 2244 c-13 -17 -21 -40 -20 -63 l1 -36 8 34 c17 71 71 80 89 15
15 -54 -5 -107 -44 -115 -24 -5 -26 -7 -13 -13 30 -13 53 -2 71 37 22 44 16
103 -15 142 -25 32 -51 32 -77 -1z"/>
<path d="M975 2233 c-69 -14 -65 -10 -65 -62 0 -27 -5 -51 -11 -53 -20 -7 3
-59 35 -79 56 -34 62 -29 69 69 4 48 10 97 13 110 7 23 2 24 -41 15z"/>
<path d="M3870 2189 c-41 -10 -109 -22 -150 -26 l-75 -8 160 -27 c93 -15 164
-23 169 -18 5 5 12 29 16 55 7 44 6 45 -19 44 -14 -1 -60 -10 -101 -20z"/>
<path d="M3540 2174 c36 -7 74 -13 85 -12 11 0 -9 6 -45 14 -36 7 -74 13 -85
12 -11 0 9 -6 45 -14z"/>
<path d="M3190 1994 c0 -17 36 -63 66 -83 83 -57 210 -28 268 62 l18 27 -176
0 c-97 0 -176 -3 -176 -6z"/>
<path d="M764 1758 c-3 -4 803 -8 1790 -8 1092 0 1796 4 1796 9 0 12 -3579 11
-3586 -1z"/>
<path d="M800 1527 c0 -49 4 -68 18 -80 23 -21 66 -22 85 -3 16 16 32 119 22
136 -15 24 -25 6 -25 -43 0 -64 -17 -93 -48 -83 -20 7 -22 14 -22 72 0 50 -3
64 -15 64 -12 0 -15 -14 -15 -63z"/>
<path d="M980 1511 c0 -47 4 -81 10 -81 6 0 10 23 10 50 0 28 3 50 7 50 4 0
31 -23 59 -51 l52 -52 7 44 c9 59 3 111 -12 117 -9 2 -13 -11 -13 -47 0 -28
-4 -51 -9 -51 -5 0 -27 19 -48 43 -61 69 -63 69 -63 -22z"/>
<path d="M1176 1582 c-8 -14 6 -152 15 -152 5 0 9 36 9 80 0 71 -9 97 -24 72z"/>
<path d="M1242 1582 c43 -106 64 -152 70 -152 8 0 68 128 68 146 0 29 -19 12
-36 -31 -9 -25 -21 -48 -25 -51 -5 -2 -18 18 -30 46 -12 27 -28 50 -36 50 -8
0 -13 -4 -11 -8z"/>
<path d="M1425 1579 c-4 -5 -4 -41 0 -80 l7 -69 39 0 c21 0 39 5 39 10 0 6
-11 10 -24 10 -16 0 -27 7 -31 21 -8 23 8 39 38 39 10 0 15 5 12 10 -3 6 -17
10 -31 10 -36 0 -28 34 9 38 15 2 27 8 27 13 0 13 -77 11 -85 -2z"/>
<path d="M1554 1576 c-10 -26 1 -139 14 -144 8 -2 12 8 12 32 0 46 18 46 48 1
12 -19 29 -35 38 -35 17 0 12 13 -18 47 -19 20 -19 22 -3 47 17 25 17 28 0 46
-21 23 -83 27 -91 6z m72 -17 c10 -17 -23 -46 -37 -32 -7 7 -9 19 -6 27 7 18
33 21 43 5z"/>
<path d="M1712 1578 c-20 -20 -13 -45 19 -71 38 -30 34 -62 -6 -55 -17 4 -25
1 -25 -8 0 -9 12 -14 33 -14 62 0 76 42 27 83 -38 32 -41 61 -5 55 17 -4 25
-1 25 8 0 17 -51 19 -68 2z"/>
<path d="M1830 1510 c0 -64 3 -80 15 -80 12 0 15 16 15 80 0 64 -3 80 -15 80
-12 0 -15 -16 -15 -80z"/>
<path d="M1900 1581 c0 -5 10 -11 23 -13 20 -3 22 -9 25 -70 2 -38 7 -68 12
-68 5 0 10 30 12 68 3 65 4 67 31 70 53 6 26 22 -38 22 -36 0 -65 -4 -65 -9z"/>
<path d="M2066 1578 c4 -7 15 -24 25 -39 10 -14 19 -42 21 -64 4 -49 28 -60
28 -13 0 23 10 48 30 74 33 44 36 54 15 54 -8 0 -22 -14 -31 -32 l-16 -32 -27
32 c-25 31 -60 46 -45 20z"/>
<path d="M2316 1569 c-65 -51 -6 -145 74 -118 54 19 66 74 25 114 -30 30 -64
32 -99 4z m89 -23 c30 -46 -17 -102 -65 -76 -29 15 -36 56 -15 80 25 27 61 25
80 -4z"/>
<path d="M2470 1515 c0 -77 16 -105 22 -37 2 30 7 38 26 40 26 4 20 22 -9 22
-10 0 -19 7 -19 15 0 9 9 15 25 15 14 0 25 5 25 10 0 6 -16 10 -35 10 l-35 0
0 -75z"/>
<path d="M2674 1576 c-3 -7 -4 -42 -2 -77 l3 -64 43 -3 c46 -3 59 15 15 20
-22 2 -28 8 -28 28 0 20 6 26 28 28 33 4 26 22 -9 22 -17 0 -24 5 -24 20 0 16
7 20 30 20 17 0 30 5 30 10 0 16 -80 12 -86 -4z"/>
<path d="M2807 1584 c-4 -4 -7 -40 -7 -81 0 -58 3 -73 15 -73 11 0 15 12 15
50 0 28 3 50 6 50 3 0 27 -23 52 -51 54 -60 65 -53 60 43 -4 80 -28 95 -28 17
l0 -53 -53 52 c-29 29 -56 49 -60 46z"/>
<path d="M3035 1578 c-51 -29 -60 -84 -20 -124 20 -20 33 -25 68 -22 41 3 42
4 42 37 0 19 -6 36 -12 39 -9 2 -13 -7 -13 -27 0 -26 -4 -31 -23 -31 -53 0
-77 75 -35 104 12 9 35 16 51 16 16 0 26 4 22 10 -8 13 -55 12 -80 -2z"/>
<path d="M3167 1583 c-4 -3 -7 -39 -7 -80 0 -58 3 -73 15 -73 12 0 15 16 15
80 0 73 -6 91 -23 73z"/>
<path d="M3240 1510 c0 -64 3 -80 15 -80 12 0 15 13 15 58 l0 57 54 -57 c29
-32 56 -58 60 -58 3 0 6 36 6 81 0 60 -3 80 -12 77 -7 -3 -15 -26 -18 -52 l-5
-47 -50 50 c-27 28 -53 51 -57 51 -4 0 -8 -36 -8 -80z"/>
<path d="M3450 1510 l0 -80 45 0 c25 0 45 5 45 10 0 6 -13 10 -30 10 -27 0
-30 3 -30 30 0 25 4 30 25 30 14 0 25 5 25 10 0 6 -11 10 -25 10 -18 0 -25 5
-25 20 0 16 7 20 30 20 17 0 30 5 30 10 0 6 -20 10 -45 10 l-45 0 0 -80z"/>
<path d="M3590 1510 l0 -80 45 0 c25 0 45 5 45 10 0 6 -13 10 -30 10 -27 0
-30 3 -30 30 0 25 4 30 25 30 14 0 25 5 25 10 0 6 -11 10 -25 10 -18 0 -25 5
-25 20 0 16 7 20 31 20 17 0 28 4 24 10 -3 6 -24 10 -46 10 l-39 0 0 -80z"/>
<path d="M3730 1509 c0 -60 3 -80 13 -77 6 3 14 22 17 44 l5 39 29 -42 c17
-26 36 -43 48 -43 17 0 16 4 -11 36 -26 32 -28 39 -15 51 34 35 5 73 -55 73
l-31 0 0 -81z m65 36 c0 -11 -8 -21 -17 -23 -14 -3 -18 3 -18 23 0 20 4 26 18
23 9 -2 17 -12 17 -23z"/>
<path d="M3890 1510 c0 -64 3 -80 15 -80 12 0 15 16 15 80 0 64 -3 80 -15 80
-12 0 -15 -16 -15 -80z"/>
<path d="M3980 1512 c0 -48 4 -82 10 -82 6 0 10 23 10 50 0 28 4 50 9 50 5 0
27 -20 49 -44 62 -67 62 -67 62 23 0 47 -4 81 -10 81 -5 0 -10 -22 -10 -50 0
-27 -3 -50 -7 -50 -4 0 -31 23 -60 52 l-53 52 0 -82z"/>
<path d="M4199 1561 c-36 -37 -37 -73 -4 -107 20 -20 33 -25 68 -22 41 3 42 4
42 37 0 19 -6 36 -12 39 -9 2 -13 -7 -13 -27 0 -26 -4 -31 -23 -31 -29 0 -57
29 -57 58 0 31 35 62 70 62 17 0 30 5 30 10 0 6 -16 10 -36 10 -26 0 -43 -8
-65 -29z"/>
<path d="M3342 1278 l3 -93 68 -3 c42 -2 67 1 67 8 0 6 -23 10 -55 10 l-55 0
0 85 c0 70 -3 85 -15 85 -13 0 -15 -15 -13 -92z"/>
<path d="M1724 1340 c-29 -11 -54 -49 -54 -78 0 -37 52 -82 94 -82 26 0 36 4
36 15 0 11 -7 14 -23 10 -30 -8 -77 29 -77 59 0 30 30 56 64 56 18 0 26 5 24
13 -6 15 -36 19 -64 7z"/>
<path d="M2300 1343 c-93 -34 -71 -163 27 -163 70 0 112 51 91 111 -15 42 -74
68 -118 52z m88 -56 c12 -24 11 -31 -2 -52 -37 -56 -116 -35 -116 30 0 41 20
56 70 52 27 -1 38 -8 48 -30z"/>
<path d="M2673 1336 c-53 -24 -61 -93 -17 -133 33 -30 92 -31 128 -2 20 16 26
29 26 58 0 67 -70 106 -137 77z m89 -28 c30 -24 31 -56 4 -83 -14 -14 -34 -25
-46 -25 -32 0 -73 46 -64 73 11 36 25 47 58 47 18 0 39 -6 48 -12z"/>
<path d="M2913 1335 c-57 -25 -71 -88 -28 -131 20 -20 33 -25 68 -22 41 3 42
4 45 41 2 28 0 37 -12 37 -11 0 -16 -9 -16 -30 0 -23 -4 -30 -20 -30 -11 0
-29 9 -40 20 -41 41 -13 100 48 100 34 0 43 14 16 24 -21 8 -24 8 -61 -9z"/>
<path d="M3030 1345 c0 -3 14 -27 30 -53 17 -28 30 -63 30 -81 0 -47 24 -34
28 14 2 22 11 50 21 64 31 45 33 51 16 51 -8 0 -24 -14 -34 -31 -18 -30 -20
-30 -30 -11 -19 36 -61 68 -61 47z"/>
<path d="M3550 1270 c-44 -87 -45 -90 -30 -90 6 0 15 11 20 25 8 22 16 25 55
25 36 0 47 -4 61 -25 9 -14 20 -22 25 -19 11 6 -69 164 -82 164 -5 0 -27 -36
-49 -80z m65 20 c8 -16 15 -34 15 -40 0 -11 -52 -14 -63 -4 -5 5 22 74 30 74
1 0 9 -13 18 -30z"/>
<path d="M3925 1338 c-30 -16 -45 -39 -45 -69 0 -41 9 -58 41 -74 40 -21 63
-19 98 11 51 42 39 110 -23 134 -34 13 -46 12 -71 -2z m85 -28 c58 -58 -20
-142 -88 -94 -15 10 -22 25 -22 49 0 58 69 86 110 45z"/>
<path d="M802 1275 c-36 -73 -41 -102 -13 -67 24 28 87 31 107 5 7 -10 15 -15
18 -12 7 7 -57 132 -70 136 -5 2 -24 -26 -42 -62z m68 -17 c0 -5 -11 -8 -25
-8 -27 0 -31 10 -14 42 11 21 12 21 25 -3 7 -13 13 -27 14 -31z"/>
<path d="M950 1270 c0 -40 4 -70 10 -70 6 0 10 24 10 53 l0 52 46 -52 c25 -29
50 -53 55 -53 5 0 9 32 9 70 0 40 -4 70 -10 70 -5 0 -10 -24 -10 -52 l-1 -53
-47 53 c-26 29 -50 52 -54 52 -5 0 -8 -31 -8 -70z"/>
<path d="M1130 1270 l0 -70 40 0 c30 0 47 7 65 25 30 30 31 54 4 89 -17 21
-29 26 -65 26 l-44 0 0 -70z m88 37 c15 -12 16 -59 0 -75 -7 -7 -25 -12 -40
-12 -27 0 -28 1 -28 55 0 55 0 55 28 49 15 -4 33 -11 40 -17z"/>
<path d="M1380 1330 c0 -5 11 -10 25 -10 24 0 25 -2 25 -70 0 -56 3 -70 15
-70 12 0 15 14 15 70 0 63 2 70 19 70 11 0 23 5 26 10 4 6 -18 10 -59 10 -37
0 -66 -4 -66 -10z"/>
<path d="M1540 1260 l0 -80 45 0 c49 0 62 17 18 22 -22 2 -28 8 -28 28 0 18 6
26 23 28 30 5 28 22 -3 22 -18 0 -25 5 -25 20 0 15 7 20 24 20 14 0 28 5 31
10 4 6 -12 10 -39 10 l-46 0 0 -80z"/>
<path d="M1840 1260 c0 -64 3 -80 15 -80 10 0 15 11 15 35 0 33 2 35 35 35 33
0 35 -2 35 -35 0 -24 5 -35 15 -35 12 0 15 16 15 80 0 63 -3 80 -14 80 -9 0
-16 -12 -18 -32 -3 -29 -6 -33 -33 -33 -27 0 -30 4 -33 33 -2 20 -9 32 -18 32
-11 0 -14 -17 -14 -80z"/>
<path d="M2030 1260 c0 -64 3 -80 15 -80 12 0 15 13 15 57 l0 57 60 -59 60
-59 0 82 c0 48 -4 82 -10 82 -5 0 -10 -15 -10 -32 0 -63 -15 -67 -60 -15 -60
68 -70 64 -70 -33z"/>
<path d="M2480 1260 l0 -80 55 0 c62 0 75 17 18 22 l-38 3 -3 68 c-2 51 -6 67
-17 67 -12 0 -15 -17 -15 -80z"/>
<path d="M3720 1259 c0 -51 4 -78 10 -74 6 3 10 22 10 41 0 35 1 35 38 32 35
-3 37 -5 40 -41 2 -20 7 -35 13 -32 12 8 12 142 -1 150 -6 4 -10 -7 -10 -24 0
-29 -2 -31 -40 -31 -38 0 -40 2 -40 30 0 17 -4 30 -10 30 -6 0 -10 -34 -10
-81z"/>
<path d="M4090 1266 c0 -41 5 -78 10 -81 6 -4 10 8 10 29 0 47 17 46 57 -1 17
-21 34 -35 38 -31 4 4 -4 21 -19 38 -27 33 -33 50 -16 50 14 0 13 43 -2 58 -7
7 -27 12 -45 12 l-33 0 0 -74z m68 33 c3 -17 -23 -33 -39 -23 -5 3 -9 14 -9
25 0 15 6 20 22 17 13 -2 24 -10 26 -19z"/>
<path d="M4242 1263 l3 -78 43 -3 c49 -4 58 15 10 20 -28 2 -33 7 -33 28 0 20
6 26 28 28 15 2 27 7 27 12 0 5 -12 10 -27 12 -20 2 -28 9 -28 23 0 15 9 22
35 26 33 6 32 6 -13 8 l-48 1 3 -77z"/>
<path d="M765 1085 c21 -8 3576 -11 3581 -3 3 4 -804 8 -1793 7 -989 0 -1793
-2 -1788 -4z"/>
</g>
</svg>
